<svg xmlns="http://www.w3.org/2000/svg" viewBox="0 0 36 63">
  <defs>
    <style>
      .cls-1, .cls-2, .cls-4 {
        fill: none;
      }

      .cls-1 {
        stroke: #233752;
        stroke-width: 3px;
      }

      .cls-3, .cls-5 {
        stroke: none;
      }

      .cls-5 {
        fill: #233752;
      }
    </style>
  </defs>
  <g id="Group_1" data-name="Group 1" transform="translate(-29 -229)">
    <g id="Ellipse_1" data-name="Ellipse 1" class="cls-1" transform="translate(36 229)">
      <circle class="cls-3" cx="11.5" cy="11.5" r="11.5"/>
      <circle class="cls-4" cx="11.5" cy="11.5" r="10"/>
    </g>
    <g id="Path_1" data-name="Path 1" class="cls-2" transform="translate(34 256)">
      <path class="cls-3" d="M6,0H20a6,6,0,0,1,6,6l5,24a6,6,0,0,1-6,6H1a6,6,0,0,1-6-6L0,6A6,6,0,0,1,6,0Z"/>
      <path class="cls-5" d="M 6 3 C 4.345790863037109 3 3 4.345790863037109 3 6 L 3 6.309179306030273 L 2.936939239501953 6.611860275268555 L -1.989103317260742 30.25687026977539 C -1.858369827270508 31.79128646850586 -0.5676822662353516 33 1 33 L 25 33 C 26.56768226623535 33 27.85836791992188 31.79128646850586 27.98910331726074 30.25687026977539 L 23.06306076049805 6.611860275268555 L 23 6.309179306030273 L 23 6 C 23 4.345790863037109 21.65420913696289 3 20 3 L 6 3 M 6 0 L 20 0 C 23.3137092590332 0 26 2.686290740966797 26 6 L 31 30 C 31 33.3137092590332 28.3137092590332 36 25 36 L 1 36 C -2.313709259033203 36 -5 33.3137092590332 -5 30 L 0 6 C 0 2.686290740966797 2.686290740966797 0 6 0 Z"/>
    </g>
  </g>
</svg>
