<svg xmlns="http://www.w3.org/2000/svg" viewBox="0 0 36 49">
  <defs>
    <style>
      .cls-1, .cls-4 {
        fill: none;
      }

      .cls-1 {
        stroke: #233752;
        stroke-width: 3px;
      }

      .cls-2 {
        fill: #eff3f4;
      }

      .cls-3, .cls-5 {
        stroke: none;
      }

      .cls-5 {
        fill: #233752;
      }
    </style>
  </defs>
  <g id="Group_11" data-name="Group 11" transform="translate(-29 -248)">
    <g id="Ellipse_1" data-name="Ellipse 1" class="cls-1" transform="translate(41 248)">
      <circle class="cls-3" cx="5.5" cy="5.5" r="5.5"/>
      <circle class="cls-4" cx="5.5" cy="5.5" r="4"/>
    </g>
    <g id="Ellipse_4" data-name="Ellipse 4" class="cls-1" transform="translate(39 282)">
      <circle class="cls-3" cx="7.5" cy="7.5" r="7.5"/>
      <circle class="cls-4" cx="7.5" cy="7.5" r="6"/>
    </g>
    <g id="Path_1" data-name="Path 1" class="cls-2" transform="translate(34 256)">
      <path class="cls-3" d="M 25 34.5 L 1 34.5 C -1.414521813392639 34.5 -3.390991687774658 32.58853530883789 -3.495641708374023 30.19934272766113 L 3.426331043243408 6.466865539550781 C 4.846698760986328 2.569118976593018 5.834120273590088 1.5 8 1.5 L 18 1.5 C 19.52289009094238 1.5 20.14633941650391 1.816130042076111 20.61391067504883 2.29079008102417 C 21.26729011535645 2.954076051712036 21.85112762451172 4.194650650024414 22.56510162353516 6.437490463256836 L 29.49564170837402 30.19934272766113 C 29.3909912109375 32.58853530883789 27.41452217102051 34.5 25 34.5 Z"/>
      <path class="cls-5" d="M 8 3 C 7.088390350341797 3 6.789699554443359 3.250949859619141 6.518489837646484 3.554111480712891 C 5.88029670715332 4.267471313476563 5.296037673950195 5.720138549804688 4.852466583251953 6.934402465820313 L -1.978950500488281 30.35640335083008 C -1.802202224731445 31.84327697753906 -0.5336570739746094 33 1 33 L 25 33 C 26.53365707397461 33 27.80220222473145 31.84327697753906 27.97895050048828 30.35640335083008 L 21.13010406494141 6.874641418457031 C 20.89370727539063 6.131401062011719 20.21710968017578 4.02543830871582 19.5452995300293 3.343441009521484 C 19.41876983642578 3.214988708496094 19.20698928833008 3 18 3 L 8 3 M 8 0 L 18 0 C 21.3137092590332 0 22.50634956359863 1.301700592041016 24 6 L 31 30 C 31 33.3137092590332 28.3137092590332 36 25 36 L 1 36 C -2.313709259033203 36 -5 33.3137092590332 -5 30 L 2 6 C 3.400760650634766 2.143619537353516 4.686290740966797 0 8 0 Z"/>
    </g>
  </g>
</svg>
